<svg width="31" height="20" viewBox="0 0 31 20" fill="none" xmlns="http://www.w3.org/2000/svg">
<path d="M13.6692 4.47368C13.9357 3.61512 14.6547 3 15.4999 3C16.3451 3 17.0641 3.61512 17.3306 4.47368" stroke="#24424D" stroke-linecap="round"/>
<path d="M21 5.94739H10" stroke="#24424D" stroke-linecap="round"/>
<path d="M19.9217 7.78943L19.6241 12.873C19.5096 14.8292 19.4523 15.8074 18.8926 16.4037C18.3329 17 17.4721 17 15.7504 17H15.25C13.5283 17 12.6674 17 12.1077 16.4037C11.548 15.8074 11.4907 14.8292 11.3762 12.873L11.0786 7.78943" stroke="#24424D" stroke-linecap="round"/>
<path d="M13.8823 9.63159L14.2059 13.3158" stroke="#24424D" stroke-linecap="round"/>
<path d="M17.1177 9.63159L16.7942 13.3158" stroke="#24424D" stroke-linecap="round"/>
<rect x="0.5" y="0.5" width="30" height="19" rx="4.5" stroke="#24424D"/>
</svg>
